<?xml version="1.0" encoding="utf-8"?>
<!-- Generator: Adobe Illustrator 24.0.1, SVG Export Plug-In . SVG Version: 6.00 Build 0)  -->
<svg version="1.1" id="Calque_1" xmlns="http://www.w3.org/2000/svg" xmlns:xlink="http://www.w3.org/1999/xlink" x="0px" y="0px"
	 viewBox="0 0 253.1 51.5" style="enable-background:new 0 0 253.1 51.5;" xml:space="preserve">
<style type="text/css">
	.st0{fill:#5968DB;}
	.st1{fill:#FFB67F;}
</style>
<title>Fichier 1</title>
<g id="Calque_2_1_">
	<g id="Calque_1-2">
		<path class="st0" d="M73.5,13.5h12.7c8,0,12.8,5.1,12.8,14.3s-4.4,14.3-12.4,14.3H73.5V13.5z M80.7,36.2h4.8
			c4.5,0,6.3-3.2,6.3-8.4s-1.8-8.5-6.3-8.5h-4.8V36.2z"/>
		<path class="st0" d="M110.7,25.3c-2.3,0-3.4,0.9-3.6,2.8h-6c0.2-3.9,3-7.2,9.7-7.2c5.8,0,9,2.2,9,8.7V39c0,1.1,0.4,1.5,1.2,1.5
			v1.5c-1.2,0.4-2.5,0.7-3.7,0.6c-2.9,0-3.7-1.4-3.7-2.8h-0.1c-1.7,1.8-4,2.8-6.4,2.8c-4.3,0-6.7-2.4-6.7-5.9c0-4.1,3-6,7.8-6.9
			c2.6-0.5,5.2-0.9,5.2-2.6C113.3,26.1,112.5,25.3,110.7,25.3z M113.3,34.6v-2.4c-1.1,0.4-2.2,0.7-3.3,0.9c-2.5,0.6-3.4,1.6-3.4,2.9
			c0,1.7,1,2.4,2.6,2.4C112,38.3,113.3,36.6,113.3,34.6L113.3,34.6z"/>
		<path class="st0" d="M127.8,21.6l3.1,12.5h0.1l3.4-12.5h5.6l3.4,12.5h0.1l3.1-12.5h6.4l-5.7,20.5h-6l-4-13h-0.1l-4,13h-6
			l-5.7-20.5H127.8z"/>
		<path class="st0" d="M174.3,28.2v13.8h-6.4V30.3c0-3.1-1.1-4.1-3.2-4.1c-2.4,0-3.8,1.2-3.8,4.1v11.8h-6.4V21.6h6.4v3h0.1
			c1.4-2.4,4-3.8,6.7-3.6C171.7,21,174.3,23.6,174.3,28.2z"/>
		<path class="st0" d="M183.9,13.5v28.6h-6.4V13.5H183.9z"/>
		<path class="st0" d="M197.2,42.7c-6.8,0-11-4.5-11-10.9s4.1-10.9,11-10.9c6.9,0,10.9,4.5,10.9,10.9S204,42.7,197.2,42.7z
			 M197.2,37.9c2.8,0,4.5-2.1,4.5-6.1s-1.7-6.1-4.5-6.1c-2.8,0-4.6,2.1-4.6,6.1S194.3,37.9,197.2,37.9z"/>
		<path class="st0" d="M219.9,25.3c-2.3,0-3.4,0.9-3.6,2.8h-6c0.2-3.9,3-7.2,9.7-7.2c5.8,0,9,2.2,9,8.7V39c0,1.1,0.4,1.5,1.2,1.5
			v1.5c-1.2,0.4-2.5,0.7-3.7,0.6c-2.9,0-3.7-1.4-3.7-2.8h-0.1c-1.7,1.8-4,2.8-6.4,2.8c-4.3,0-6.7-2.4-6.7-5.9c0-4.1,3-6,7.8-6.9
			c2.6-0.5,5.2-0.9,5.2-2.6C222.5,26.1,221.7,25.3,219.9,25.3z M222.5,34.6v-2.4c-1.1,0.4-2.2,0.7-3.3,0.9c-2.5,0.6-3.4,1.6-3.4,2.9
			c0,1.7,1,2.4,2.6,2.4C221.2,38.3,222.5,36.6,222.5,34.6L222.5,34.6z"/>
		<path class="st0" d="M253.1,13.5v28.6h-6.4v-2h-0.1c-1.5,1.7-3.6,2.7-5.9,2.7c-5.4,0-8.9-4.2-8.9-10.9s3.5-10.9,8.9-10.9
			c2.3,0,4.4,0.9,5.9,2.7h0.1V13.5H253.1z M246.5,31.8c0-4-1.6-6.1-4.2-6.1s-4.2,2.1-4.2,6.1s1.6,6.1,4.2,6.1S246.5,35.8,246.5,31.8
			z"/>
		<ellipse class="st1" cx="30.9" cy="26" rx="11.5" ry="11.6"/>
		<polygon class="st1" points="7.2,5.5 15.7,14.2 20.2,9.3 11.7,1 		"/>
		<polygon class="st1" points="0,22.4 0,28.9 12.1,29 11.8,22.4 		"/>
		<polygon class="st1" points="7.1,45.5 15.6,37 20.5,42.2 12,50.7 		"/>
		<path class="st0" d="M30.9,0v6.5c0,0,13.4,0.1,18,13.2s-7.4,21.8-7.4,21.8c-3.1,2-6.7,3.2-10.4,3.2l-0.1,6.7
			c8.2,0.4,16-3.6,20.6-10.4c4.8-6.8,6.2-15.4,3.9-23.5c0,0-2.9-10.8-13.8-15.4C38.3,1,34.7,0.2,30.9,0z"/>
	</g>
</g>
</svg>
